<?xml version="1.0" standalone="no"?>
<!DOCTYPE svg PUBLIC "-//W3C//DTD SVG 20010904//EN"
 "http://www.w3.org/TR/2001/REC-SVG-20010904/DTD/svg10.dtd">
<svg version="1.0" xmlns="http://www.w3.org/2000/svg"
 width="500.000000pt" height="500.000000pt" viewBox="0 0 500.000000 500.000000"
 preserveAspectRatio="xMidYMid meet">

<g transform="translate(0.000000,500.000000) scale(0.100000,-0.100000)"
fill="#000000" stroke="none">
<path d="M940 2240 l0 -250 108 0 c59 0 124 5 144 10 106 30 130 182 36 235
l-36 20 24 28 c18 22 24 40 24 77 0 95 -64 130 -237 130 l-63 0 0 -250z m164
150 c21 -8 26 -16 26 -45 0 -29 -5 -37 -26 -45 -48 -19 -54 -14 -54 45 0 59 6
64 54 45z m48 -217 c43 -39 9 -93 -59 -93 l-43 0 0 55 0 55 42 0 c24 0 49 -7
60 -17z"/>
<path d="M2118 2485 c-5 -5 -8 -118 -8 -252 l0 -243 115 0 c127 0 164 10 205
55 21 22 25 37 25 85 0 47 -4 63 -23 83 -13 14 -35 28 -49 32 l-25 6 26 26
c55 54 41 153 -26 186 -39 19 -227 36 -240 22z m180 -112 c6 -9 12 -23 12 -30
0 -22 -38 -53 -65 -53 -23 0 -25 3 -25 48 0 27 3 52 7 56 11 11 56 -3 71 -21z
m26 -199 c9 -8 16 -26 16 -39 0 -36 -26 -55 -76 -55 l-44 0 0 55 0 55 44 0
c27 0 51 -6 60 -16z"/>
<path d="M2596 2300 c-129 -39 -143 -241 -21 -300 52 -25 91 -25 133 0 26 16
32 17 32 5 0 -11 13 -15 55 -15 l55 0 0 155 0 155 -55 0 c-40 0 -55 -4 -55
-14 0 -11 -8 -10 -37 5 -40 20 -62 22 -107 9z m118 -101 c50 -40 23 -129 -39
-129 -31 0 -75 41 -75 70 0 31 18 60 43 70 33 13 42 12 71 -11z"/>
<path d="M3676 2300 c-129 -39 -143 -241 -21 -300 52 -25 91 -25 133 0 26 16
32 17 32 5 0 -11 13 -15 55 -15 l55 0 0 155 0 155 -55 0 c-40 0 -55 -4 -55
-14 0 -11 -8 -10 -37 5 -40 20 -62 22 -107 9z m118 -101 c50 -40 23 -129 -39
-129 -31 0 -75 41 -75 70 0 31 18 60 43 70 33 13 42 12 71 -11z"/>
<path d="M4147 2286 c-35 -24 -37 -24 -37 -6 0 18 -7 20 -55 20 l-55 0 0 -155
0 -155 55 0 55 0 0 94 c0 114 10 131 75 123 41 -4 43 -3 63 39 23 47 23 49
-28 59 -28 5 -43 1 -73 -19z"/>
<path d="M1331 2198 c0 -135 11 -167 69 -196 37 -19 56 -23 110 -19 129 8 155
42 155 207 l0 105 -52 3 -53 3 0 -93 c0 -108 -13 -138 -60 -138 -51 0 -60 20
-60 131 l0 99 -55 0 -55 0 1 -102z"/>
<path d="M1690 2293 c0 -5 31 -64 70 -133 l69 -125 -49 -92 c-28 -50 -50 -97
-50 -103 0 -7 20 -10 58 -8 l57 3 118 225 c64 123 117 228 117 232 0 5 -26 8
-58 8 l-58 0 -33 -75 c-18 -41 -36 -75 -40 -75 -3 0 -24 34 -46 75 l-40 75
-57 0 c-32 0 -58 -3 -58 -7z"/>
<path d="M2910 2260 l0 -40 61 0 c73 0 73 5 -9 -117 -32 -49 -62 -94 -66 -100
-6 -10 27 -13 148 -13 l156 0 0 40 0 40 -65 0 c-36 0 -65 2 -65 5 0 3 32 53
70 110 39 57 70 107 70 110 0 3 -67 5 -150 5 l-150 0 0 -40z"/>
<path d="M3250 2260 l0 -40 60 0 c33 0 60 -2 60 -5 0 -3 -31 -53 -70 -110 -38
-57 -70 -107 -70 -110 0 -3 70 -5 155 -5 l155 0 0 40 0 40 -70 0 -70 0 72 108
c40 59 75 110 76 115 2 4 -64 7 -147 7 l-151 0 0 -40z"/>
</g>
</svg>
